<svg xmlns="http://www.w3.org/2000/svg">
  <!-- Dustbin icon -->
  <symbol xmlns="http://www.w3.org/2000/svg" viewBox="0 0 20 20" id="dustbin-logo" width="100%" height="100%"><path d="M12.156 14.787c0 .09.035.167.102.228.067.06.154.09.257.09h.36c.098 0 .182-.03.25-.086a.285.285 0 0 0 .11-.233v-5.29a.31.31 0 0 0-.11-.237.348.348 0 0 0-.25-.1h-.36a.348.348 0 0 0-.25.1.31.31 0 0 0-.11.237zm-1.62-5.29a.307.307 0 0 0-.103-.237.363.363 0 0 0-.253-.1h-.36a.324.324 0 0 0-.244.1.33.33 0 0 0-.096.237v5.29c0 .09.03.167.093.228.06.06.142.09.247.09h.36c.096 0 .18-.03.253-.086a.282.282 0 0 0 .104-.233zM8.673 4.964a91.81 91.81 0 0 1 2.676 0c0-.07.005-.135.02-.202a.533.533 0 0 0 0-.187v-.128a2.85 2.85 0 0 0-.683-.095 27.3 27.3 0 0 0-1.374 0 2.8 2.8 0 0 0-.675.095v.128c0 .057.002.122.01.19.006.07.015.136.027.2m-.828 4.532a.316.316 0 0 0-.106-.237.356.356 0 0 0-.253-.1h-.358c-.1 0-.18.033-.244.1a.323.323 0 0 0-.098.237v5.29a.3.3 0 0 0 .098.228.34.34 0 0 0 .244.09h.358c.098 0 .182-.03.253-.086a.29.29 0 0 0 .106-.233zm2.16-1.312c.792-.01 1.582-.03 2.373-.05a27.15 27.15 0 0 0 2.374-.173v7.212c0 .36-.135.674-.404.934a1.364 1.364 0 0 1-.985.392H6.64c-.387 0-.72-.128-1-.39a1.223 1.223 0 0 1-.416-.936V7.962c.753.094 1.502.153 2.243.182a61.66 61.66 0 0 0 2.244.04zM16 6.075v.595c-.227.115-.603.207-1.13.28a22.34 22.34 0 0 1-1.707.162c-.61.04-1.203.062-1.78.065-.575.006-1.034.01-1.378.01-.338 0-.797-.004-1.38-.01a29.745 29.745 0 0 1-1.79-.065 24.075 24.075 0 0 1-1.694-.158c-.52-.07-.894-.164-1.12-.284a2.14 2.14 0 0 1-.02-.3v-.606c0-.102.006-.207.02-.31.15-.078.37-.15.652-.203.28-.052.58-.097.9-.132.318-.034.633-.06.942-.077.312-.015.552-.03.723-.042-.05-.47-.014-.837.105-1.104.12-.262.302-.46.548-.588.244-.13.545-.214.905-.252.36-.036.76-.054 1.21-.054.338 0 .672.007 1.006.025.336.018.633.078.898.175.264.102.473.26.63.47.156.214.235.514.235.905v.207c0 .07-.008.142-.017.216.176.01.418.027.724.043.307.02.622.044.945.078.32.035.626.08.912.133.29.055.51.126.663.203z" fill="inherit"></path>
  </symbol>

  <!--Wikivoyage logo-->
  <symbol id="wikivoyage-logo" xmlns:dc="http://purl.org/dc/elements/1.1/" xmlns:cc="http://creativecommons.org/ns#" xmlns:rdf="http://www.w3.org/1999/02/22-rdf-syntax-ns#" xmlns:svg="http://www.w3.org/2000/svg" xmlns="http://www.w3.org/2000/svg" xmlns:sodipodi="http://sodipodi.sourceforge.net/DTD/sodipodi-0.dtd" xmlns:inkscape="http://www.inkscape.org/namespaces/inkscape" width="100%" height="100%" viewBox="0 0 190 190" version="1.1" inkscape:version="0.48.4 r9939" sodipodi:docname="Neues Dokument 13">
    <defs id="defs10466"/>
    <metadata id="metadata10469">
      <rdf:RDF>
        <cc:Work rdf:about="">
          <dc:format>image/svg+xml</dc:format>
          <dc:type rdf:resource="http://purl.org/dc/dcmitype/StillImage"/>
          <dc:title/>
        </cc:Work>
      </rdf:RDF>
    </metadata>
    <g inkscape:label="Ebene 1" inkscape:groupmode="layer" id="layer1" transform="translate(-253.75,-436.11218)">
      <g id="g10459" transform="translate(722.97145,-2916.4008)">
        <path style="fill:#339966;fill-opacity:1;stroke:none" d="m -377.73926,3469.1621 47.91553,72.5713 5.21035,-86.8064 c -13.89437,13.8944 -34.14588,19.3208 -53.12588,14.2351 z" id="path10362" inkscape:connector-curvature="0"/>
        <path inkscape:connector-curvature="0" id="path10364" d="m -318.89196,3433.5745 38.89087,-77.7818 -77.78173,38.8909 c 18.98006,5.0857 33.80519,19.9108 38.89086,38.8909 z" style="fill:#990000;fill-opacity:1;stroke:none"/>
        <path style="fill:#006699;fill-opacity:1;stroke:none" d="m -379.1354,3400.405 -86.80641,5.2104 72.57138,47.9155 c -5.08569,-18.98 0.34069,-39.2315 14.23503,-53.1259 z" id="path10366" inkscape:connector-curvature="0"/>
      </g>
    </g>
  </symbol>

  <!-- add button -->
  <symbol version="1.1" id="add-button" xmlns="http://www.w3.org/2000/svg" xmlns:xlink="http://www.w3.org/1999/xlink" width="100%" height="100%"
  viewBox="0 0 28 28" style="enable-background:new 0 0 27.963 27.963;" xml:space="preserve">
  <g>
    <g id="g342564">
      <path d="M13.98,0C6.259,0,0,6.26,0,13.982s6.259,13.981,13.98,13.981c7.725,0,13.983-6.26,13.983-13.981
        C27.963,6.26,21.705,0,13.98,0z M21.102,16.059h-4.939v5.042h-4.299v-5.042H6.862V11.76h5.001v-4.9h4.299v4.9h4.939v4.299H21.102z
        "/>
    </g>
  </g>
</symbol>
</svg>